<svg xmlns="http://www.w3.org/2000/svg" version="1.1" xmlns:xlink="http://www.w3.org/1999/xlink" xmlns:svgjs="http://svgjs.dev/svgjs" width="308.7612359841165" height="304.915625" viewBox="0 0 1500 1500"><rect width="1500" height="1500" fill="#000000"></rect><g transform="matrix(0.38880248833592534,0,0,0.38880248833592534,458.50282034341114,250.40485829959516)"><svg viewBox="0 0 144 247" data-background-color="#000000" preserveAspectRatio="xMidYMid meet" height="2572" width="1500" xmlns="http://www.w3.org/2000/svg" xmlns:xlink="http://www.w3.org/1999/xlink"><g id="tight-bounds" transform="matrix(1,0,0,1,-0.0258483766323252,-0.09999999999999432)"><svg viewBox="0 0 144.05169675326465 247.2" height="247.2" width="144.05169675326465"><g><svg viewBox="0 0 192.22718793723254 329.87158033601554" height="247.2" width="144.05169675326465"><g><svg viewBox="0 0 192.22718793723254 329.87158033601554" height="329.87158033601554" width="192.22718793723254"><g id="textblocktransform"><svg viewBox="0 0 192.22718793723254 329.87158033601554" height="329.87158033601554" width="192.22718793723254" id="textblock"><g><svg viewBox="0 0 192.22718793723254 245.672304" height="245.672304" width="192.22718793723254"><g transform="matrix(1,0,0,1,0,0)"><svg width="192.22718793723254" viewBox="3.05 -34.23 26.779999999999998 34.23" height="245.672304" data-palette-color="#89939e"><path d="M3.08-33.2L3.08-33.2Q3.08-34.23 4.08-34.23L4.08-34.23 15.04-34.23Q17.75-34.23 20.37-33.64 23-33.06 25.15-31.75 27.29-30.44 28.56-28.28 29.83-26.12 29.83-22.97L29.83-22.97Q29.83-22.09 29.69-21.18 29.54-20.26 29.27-19.41L29.27-19.41Q28.34-16.48 26.25-14.71 24.15-12.94 21.4-12.16 18.65-11.38 15.82-11.38L15.82-11.38 9.64-11.38Q9.35-11.38 9.35-11.08L9.35-11.08 9.28-0.98Q9.28 0 8.28 0L8.28 0 4.05 0Q3.05 0 3.05-1.03L3.05-1.03Q3.05-2.34 3.1-3.67 3.15-5 3.17-6.32L3.17-6.32Q3.25-11.89 3.25-17.5L3.25-17.5Q3.25-22.75 3.17-27.98L3.17-27.98Q3.15-29.27 3.11-30.59 3.08-31.91 3.08-33.2ZM9.38-17.29L9.38-17.29 15.89-17.29Q17.31-17.29 18.81-17.66 20.31-18.04 21.56-18.88 22.8-19.73 23.36-21.12L23.36-21.12Q23.51-21.48 23.63-21.95 23.75-22.41 23.75-22.8L23.75-22.8Q23.75-23.14 23.63-23.62 23.51-24.1 23.39-24.44L23.39-24.44Q22.83-25.83 21.64-26.68 20.46-27.54 19.01-27.94 17.55-28.34 16.16-28.34L16.16-28.34 9.33-28.34Q9.35-25.59 9.36-22.81 9.38-20.04 9.38-17.29Z" opacity="1" transform="matrix(1,0,0,1,0,0)" fill="#ffffff" class="wordmark-text-0" data-fill-palette-color="primary" id="text-0"></path></svg></g></svg></g><g transform="matrix(1,0,0,1,0,303.669638839104)"><svg viewBox="0 0 192.22718793723254 26.201941496911548" height="26.201941496911548" width="192.22718793723254"><g transform="matrix(1,0,0,1,0,0)"><svg width="192.22718793723254" viewBox="5.35 -42.3 402.37 54.849999999999994" height="26.201941496911548" data-palette-color="#dedede"><path d="M17.95-37.9Q27.3-37.9 32.08-33.08 36.85-28.25 36.85-18.9L36.85-18.9Q36.85-9.5 32.1-4.75 27.35 0 17.95 0L17.95 0 5.35 0 5.35-37.9 17.95-37.9ZM31.85-19.05Q31.85-26.55 28.35-30.1 24.85-33.65 17.95-33.65L17.95-33.65 10.2-33.65 10.2-4.25 17.95-4.25Q24.9-4.25 28.38-7.8 31.85-11.35 31.85-19.05L31.85-19.05ZM47.5-13.45Q47.6-8.85 49.8-6.1 52-3.35 56.8-3.35L56.8-3.35Q60.45-3.35 64.8-5.4L64.8-5.4 66.25-1.5Q61.7 0.85 56.4 0.85L56.4 0.85Q52 0.85 48.9-1 45.8-2.85 44.2-6.15 42.6-9.45 42.6-13.85L42.6-13.85Q42.6-18.5 44.27-21.78 45.95-25.05 48.8-26.75 51.65-28.45 55.2-28.45L55.2-28.45Q60.65-28.45 63.75-25.05 66.85-21.65 66.85-15.3L66.85-15.3 66.85-13.45 47.5-13.45ZM55.2-24.25Q49-24.25 47.8-17.4L47.8-17.4 61.9-17.4Q61.65-20.9 60-22.58 58.35-24.25 55.2-24.25L55.2-24.25ZM91.55-27.65L96.45-27.65 86 0.45 80.6 0.45 70.05-27.65 74.95-27.65 83.3-4.75 91.55-27.65ZM105.14-13.45Q105.24-8.85 107.44-6.1 109.64-3.35 114.44-3.35L114.44-3.35Q118.09-3.35 122.44-5.4L122.44-5.4 123.89-1.5Q119.34 0.85 114.04 0.85L114.04 0.85Q109.64 0.85 106.54-1 103.44-2.85 101.84-6.15 100.24-9.45 100.24-13.85L100.24-13.85Q100.24-18.5 101.92-21.78 103.59-25.05 106.44-26.75 109.29-28.45 112.84-28.45L112.84-28.45Q118.29-28.45 121.39-25.05 124.49-21.65 124.49-15.3L124.49-15.3 124.49-13.45 105.14-13.45ZM112.84-24.25Q106.64-24.25 105.44-17.4L105.44-17.4 119.54-17.4Q119.29-20.9 117.64-22.58 115.99-24.25 112.84-24.25L112.84-24.25ZM138.24 0.65Q134.49 0.65 132.84-0.85 131.19-2.35 131.19-5.9L131.19-5.9 131.19-42.3 135.89-42.3 135.89-7.15Q135.89-5.15 136.52-4.42 137.14-3.7 138.89-3.7L138.89-3.7Q140.29-3.7 141.39-4L141.39-4 141.39 0.3Q139.39 0.65 138.24 0.65L138.24 0.65ZM159.09 0.85Q154.69 0.85 151.61-1.07 148.54-3 146.99-6.33 145.44-9.65 145.44-13.8L145.44-13.8Q145.44-17.95 146.99-21.28 148.54-24.6 151.61-26.53 154.69-28.45 159.09-28.45L159.09-28.45Q163.49-28.45 166.56-26.53 169.64-24.6 171.16-21.28 172.69-17.95 172.69-13.8L172.69-13.8Q172.69-9.65 171.16-6.33 169.64-3 166.56-1.07 163.49 0.85 159.09 0.85L159.09 0.85ZM159.09-3.4Q163.24-3.4 165.51-6.3 167.79-9.2 167.79-13.8L167.79-13.8Q167.79-18.4 165.51-21.28 163.24-24.15 159.09-24.15L159.09-24.15Q154.94-24.15 152.64-21.28 150.34-18.4 150.34-13.8L150.34-13.8Q150.34-9.2 152.64-6.3 154.94-3.4 159.09-3.4L159.09-3.4ZM192.69-28.45Q198.29-28.45 201.61-24.7 204.94-20.95 204.94-13.8L204.94-13.8Q204.94-6.65 201.61-2.9 198.29 0.85 192.69 0.85L192.69 0.85Q188.64 0.85 184.69-2.5L184.69-2.5 184.69 11.7 179.99 11.7 179.99-27.65 184.69-27.65 184.69-25.05Q188.69-28.45 192.69-28.45L192.69-28.45ZM192.04-3.5Q195.99-3.5 198.04-6.13 200.09-8.75 200.09-13.8L200.09-13.8Q200.09-18.85 198.04-21.45 195.99-24.05 192.04-24.05L192.04-24.05Q188.29-24.05 184.69-20.95L184.69-20.95 184.69-6.6Q188.39-3.5 192.04-3.5L192.04-3.5ZM235.33-22.95L228.93-22.95 228.93-7.15Q228.93-5.15 229.56-4.42 230.18-3.7 231.88-3.7L231.88-3.7Q233.38-3.7 235.08-4.1L235.08-4.1 235.08 0.15Q232.83 0.65 231.08 0.65L231.08 0.65Q227.28 0.65 225.76-0.9 224.23-2.45 224.23-6.1L224.23-6.1 224.23-22.95 220.63-22.95 220.63-27.3 224.23-27.3 224.23-36.8 228.93-36.8 228.93-27.3 235.33-27.3 235.33-22.95ZM253.88 0.85Q249.48 0.85 246.4-1.07 243.33-3 241.78-6.33 240.23-9.65 240.23-13.8L240.23-13.8Q240.23-17.95 241.78-21.28 243.33-24.6 246.4-26.53 249.48-28.45 253.88-28.45L253.88-28.45Q258.28-28.45 261.35-26.53 264.43-24.6 265.95-21.28 267.48-17.95 267.48-13.8L267.48-13.8Q267.48-9.65 265.95-6.33 264.43-3 261.35-1.07 258.28 0.85 253.88 0.85L253.88 0.85ZM253.88-3.4Q258.03-3.4 260.3-6.3 262.58-9.2 262.58-13.8L262.58-13.8Q262.58-18.4 260.3-21.28 258.03-24.15 253.88-24.15L253.88-24.15Q249.73-24.15 247.43-21.28 245.13-18.4 245.13-13.8L245.13-13.8Q245.13-9.2 247.43-6.3 249.73-3.4 253.88-3.4L253.88-3.4ZM304.27-27.65L308.97-27.65 308.97 0.55Q308.97 6.2 306.35 9.38 303.72 12.55 297.17 12.55L297.17 12.55Q293.97 12.55 291.65 12.15 289.32 11.75 286.87 10.75L286.87 10.75 286.87 6.1Q289.17 7.15 291.47 7.68 293.77 8.2 295.72 8.2L295.72 8.2Q299.32 8.2 301.17 7.28 303.02 6.35 303.65 4.63 304.27 2.9 304.27 0.05L304.27 0.05 304.27-3.5Q300.32-0.15 296.27-0.15L296.27-0.15Q290.67-0.15 287.35-3.8 284.02-7.45 284.02-14.3L284.02-14.3Q284.02-21.2 287.37-24.83 290.72-28.45 296.27-28.45L296.27-28.45Q300.27-28.45 304.27-25.05L304.27-25.05 304.27-27.65ZM296.92-4.5Q300.57-4.5 304.27-7.6L304.27-7.6 304.27-20.95Q300.67-24.05 296.92-24.05L296.92-24.05Q293.02-24.05 290.95-21.48 288.87-18.9 288.87-14.3L288.87-14.3Q288.87-9.55 290.92-7.03 292.97-4.5 296.92-4.5L296.92-4.5ZM330.27-28.25L331.42-28.25 331.42-23.85 330.27-23.85Q325.97-23.85 321.92-20.4L321.92-20.4 321.92 0 317.22 0 317.22-27.65 321.92-27.65 321.92-24.55Q326.02-28.25 330.27-28.25L330.27-28.25ZM349.37 0.85Q344.97 0.85 341.89-1.07 338.82-3 337.27-6.33 335.72-9.65 335.72-13.8L335.72-13.8Q335.72-17.95 337.27-21.28 338.82-24.6 341.89-26.53 344.97-28.45 349.37-28.45L349.37-28.45Q353.77-28.45 356.84-26.53 359.92-24.6 361.44-21.28 362.97-17.95 362.97-13.8L362.97-13.8Q362.97-9.65 361.44-6.33 359.92-3 356.84-1.07 353.77 0.85 349.37 0.85L349.37 0.85ZM349.37-3.4Q353.52-3.4 355.79-6.3 358.07-9.2 358.07-13.8L358.07-13.8Q358.07-18.4 355.79-21.28 353.52-24.15 349.37-24.15L349.37-24.15Q345.22-24.15 342.92-21.28 340.62-18.4 340.62-13.8L340.62-13.8Q340.62-9.2 342.92-6.3 345.22-3.4 349.37-3.4L349.37-3.4ZM402.82-27.65L407.72-27.65 399.22 0.45 394.17 0.45 387.32-20.75 380.52 0.45 375.47 0.45 366.92-27.65 371.82-27.65 378.02-5.7 384.62-27.65 390.02-27.65 396.67-5.7 402.82-27.65Z" opacity="1" transform="matrix(1,0,0,1,0,0)" fill="#ffffff" class="slogan-text-1" data-fill-palette-color="secondary" id="text-1"></path></svg></g></svg></g></svg></g></svg></g><g></g></svg></g><defs></defs></svg><rect width="144.05169675326465" height="247.2" fill="none" stroke="none" visibility="hidden"></rect></g></svg></g></svg>